G04*
G04 #@! TF.GenerationSoftware,Altium Limited,Altium Designer,21.4.1 (30)*
G04*
G04 Layer_Physical_Order=1*
G04 Layer_Color=255*
%FSLAX42Y42*%
%MOMM*%
G71*
G04*
G04 #@! TF.SameCoordinates,E2F270B4-6BBA-4985-9D84-7226317FA361*
G04*
G04*
G04 #@! TF.FilePolarity,Positive*
G04*
G01*
G75*
G04:AMPARAMS|DCode=14|XSize=0.67mm|YSize=0.67mm|CornerRadius=0.02mm|HoleSize=0mm|Usage=FLASHONLY|Rotation=90.000|XOffset=0mm|YOffset=0mm|HoleType=Round|Shape=RoundedRectangle|*
%AMROUNDEDRECTD14*
21,1,0.67,0.64,0,0,90.0*
21,1,0.64,0.67,0,0,90.0*
1,1,0.03,0.32,0.32*
1,1,0.03,0.32,-0.32*
1,1,0.03,-0.32,-0.32*
1,1,0.03,-0.32,0.32*
%
%ADD14ROUNDEDRECTD14*%
%ADD16R,0.60X0.20*%
%ADD17R,1.30X0.71*%
%ADD18R,1.85X0.71*%
%ADD19R,0.55X0.55*%
%ADD20R,0.58X0.45*%
%ADD21R,0.70X0.55*%
G04:AMPARAMS|DCode=22|XSize=0.67mm|YSize=0.67mm|CornerRadius=0.02mm|HoleSize=0mm|Usage=FLASHONLY|Rotation=180.000|XOffset=0mm|YOffset=0mm|HoleType=Round|Shape=RoundedRectangle|*
%AMROUNDEDRECTD22*
21,1,0.67,0.64,0,0,180.0*
21,1,0.64,0.67,0,0,180.0*
1,1,0.03,-0.32,0.32*
1,1,0.03,0.32,0.32*
1,1,0.03,0.32,-0.32*
1,1,0.03,-0.32,-0.32*
%
%ADD22ROUNDEDRECTD22*%
%ADD32C,1.27*%
%ADD35C,0.64*%
%ADD36C,0.15*%
D14*
X8539Y5385D02*
D03*
X8636D02*
D03*
X8524Y9601D02*
D03*
X8621D02*
D03*
X8527Y8966D02*
D03*
X8623D02*
D03*
X8527Y7709D02*
D03*
X8623D02*
D03*
X8539Y6934D02*
D03*
X8636D02*
D03*
X8539Y6058D02*
D03*
X8636D02*
D03*
D16*
X5785Y7686D02*
D03*
Y7286D02*
D03*
Y7326D02*
D03*
Y7366D02*
D03*
Y7406D02*
D03*
Y7446D02*
D03*
Y7486D02*
D03*
Y7526D02*
D03*
Y7566D02*
D03*
Y7606D02*
D03*
Y7726D02*
D03*
Y7646D02*
D03*
Y7766D02*
D03*
Y7806D02*
D03*
Y7846D02*
D03*
Y7886D02*
D03*
Y7926D02*
D03*
Y7966D02*
D03*
Y8006D02*
D03*
Y8046D02*
D03*
Y8086D02*
D03*
Y8126D02*
D03*
Y8166D02*
D03*
Y8206D02*
D03*
Y8246D02*
D03*
Y8286D02*
D03*
Y7166D02*
D03*
Y7206D02*
D03*
Y7246D02*
D03*
Y7126D02*
D03*
D17*
X5715Y8551D02*
D03*
Y6862D02*
D03*
D18*
X5482Y8551D02*
D03*
Y6862D02*
D03*
D19*
X5702Y8186D02*
D03*
Y7946D02*
D03*
Y7706D02*
D03*
Y7466D02*
D03*
Y7226D02*
D03*
D20*
X5869Y8306D02*
D03*
Y8146D02*
D03*
Y7986D02*
D03*
Y7786D02*
D03*
Y7626D02*
D03*
Y7426D02*
D03*
Y7106D02*
D03*
Y7266D02*
D03*
D21*
X5780Y8376D02*
D03*
Y7036D02*
D03*
D22*
X7978Y9223D02*
D03*
Y9319D02*
D03*
X8001Y7267D02*
D03*
Y7363D02*
D03*
Y5695D02*
D03*
Y5791D02*
D03*
D32*
X12263Y10152D02*
D03*
X12568Y4714D02*
D03*
X14351Y11455D02*
D03*
X14338Y3188D02*
D03*
X4407D02*
D03*
X4394Y11455D02*
D03*
X6325Y8877D02*
D03*
D35*
X11946Y9909D02*
D03*
Y9782D02*
D03*
Y9655D02*
D03*
Y9528D02*
D03*
Y9401D02*
D03*
Y9274D02*
D03*
Y9147D02*
D03*
Y9020D02*
D03*
Y8893D02*
D03*
Y8766D02*
D03*
Y8639D02*
D03*
Y8512D02*
D03*
Y8385D02*
D03*
Y8258D02*
D03*
Y8131D02*
D03*
Y8004D02*
D03*
Y7877D02*
D03*
Y7750D02*
D03*
Y7623D02*
D03*
Y7496D02*
D03*
Y4956D02*
D03*
Y5083D02*
D03*
Y5210D02*
D03*
Y5337D02*
D03*
Y5464D02*
D03*
Y5591D02*
D03*
Y5718D02*
D03*
Y5845D02*
D03*
Y5972D02*
D03*
Y6099D02*
D03*
Y6226D02*
D03*
Y6353D02*
D03*
Y6480D02*
D03*
Y6607D02*
D03*
Y6734D02*
D03*
Y6861D02*
D03*
Y6988D02*
D03*
Y7115D02*
D03*
Y7242D02*
D03*
Y7369D02*
D03*
X12073D02*
D03*
Y7242D02*
D03*
Y7115D02*
D03*
Y6988D02*
D03*
Y6861D02*
D03*
Y6734D02*
D03*
Y6607D02*
D03*
Y6480D02*
D03*
Y6353D02*
D03*
Y6226D02*
D03*
Y6099D02*
D03*
Y5972D02*
D03*
Y5845D02*
D03*
Y5718D02*
D03*
Y5591D02*
D03*
Y5464D02*
D03*
Y5337D02*
D03*
Y5210D02*
D03*
Y5083D02*
D03*
Y4956D02*
D03*
Y7496D02*
D03*
Y7623D02*
D03*
Y7750D02*
D03*
Y7877D02*
D03*
Y8004D02*
D03*
Y8131D02*
D03*
Y8258D02*
D03*
Y8385D02*
D03*
Y8512D02*
D03*
Y8639D02*
D03*
Y8766D02*
D03*
Y8893D02*
D03*
Y9020D02*
D03*
Y9147D02*
D03*
Y9274D02*
D03*
Y9401D02*
D03*
Y9528D02*
D03*
Y9655D02*
D03*
Y9782D02*
D03*
Y9909D02*
D03*
X12581D02*
D03*
Y9782D02*
D03*
Y9655D02*
D03*
Y9528D02*
D03*
Y9401D02*
D03*
Y9274D02*
D03*
Y9147D02*
D03*
Y9020D02*
D03*
Y8893D02*
D03*
Y8766D02*
D03*
Y8639D02*
D03*
Y8512D02*
D03*
Y8385D02*
D03*
Y8258D02*
D03*
Y8131D02*
D03*
Y8004D02*
D03*
Y7877D02*
D03*
Y7750D02*
D03*
Y7623D02*
D03*
Y7496D02*
D03*
Y4956D02*
D03*
Y5083D02*
D03*
Y5210D02*
D03*
Y5337D02*
D03*
Y5464D02*
D03*
Y5591D02*
D03*
Y5718D02*
D03*
Y5845D02*
D03*
Y5972D02*
D03*
Y6099D02*
D03*
Y6226D02*
D03*
Y6353D02*
D03*
Y6480D02*
D03*
Y6607D02*
D03*
Y6734D02*
D03*
Y6861D02*
D03*
Y6988D02*
D03*
Y7115D02*
D03*
Y7242D02*
D03*
Y7369D02*
D03*
X12454D02*
D03*
Y7242D02*
D03*
Y7115D02*
D03*
Y6988D02*
D03*
Y6861D02*
D03*
Y6734D02*
D03*
Y6607D02*
D03*
Y6480D02*
D03*
Y6353D02*
D03*
Y6226D02*
D03*
Y6099D02*
D03*
Y5972D02*
D03*
Y5845D02*
D03*
Y5718D02*
D03*
Y5591D02*
D03*
Y5464D02*
D03*
Y5337D02*
D03*
Y5210D02*
D03*
Y5083D02*
D03*
Y4956D02*
D03*
Y7496D02*
D03*
Y7623D02*
D03*
Y7750D02*
D03*
Y7877D02*
D03*
Y8004D02*
D03*
Y8131D02*
D03*
Y8258D02*
D03*
Y8385D02*
D03*
Y8512D02*
D03*
Y8639D02*
D03*
Y8766D02*
D03*
Y8893D02*
D03*
Y9020D02*
D03*
Y9147D02*
D03*
Y9274D02*
D03*
Y9401D02*
D03*
Y9528D02*
D03*
Y9655D02*
D03*
Y9782D02*
D03*
Y9909D02*
D03*
D36*
X6185Y8877D02*
X6325D01*
Y9030D01*
X5855Y8547D02*
X6185Y8877D01*
X6325Y9030D02*
X7226Y9931D01*
X5748Y8547D02*
X5855D01*
X7226Y9931D02*
X11846D01*
X5748Y8547D02*
X5780Y8515D01*
X5744Y8551D02*
X5748Y8547D01*
X5780Y8376D02*
Y8515D01*
X5715Y8551D02*
X5744D01*
X6285Y7926D02*
X7620Y6591D01*
X11422D01*
X11946Y7115D01*
X11773Y6561D02*
X11946Y6734D01*
X7607Y6561D02*
X11773D01*
X6282Y7886D02*
X7607Y6561D01*
X11978Y9864D02*
X11991D01*
X11846Y9931D02*
X11923Y9854D01*
X11991Y9864D02*
X12073Y9782D01*
X11968Y9854D02*
X11978Y9864D01*
X11923Y9854D02*
X11968D01*
X5711Y8376D02*
X5780D01*
X11841Y4940D02*
X11911Y4871D01*
X8301Y4940D02*
X11841D01*
X12177D02*
X12311D01*
X12108Y4871D02*
X12177Y4940D01*
X6075Y7166D02*
X8301Y4940D01*
X8313Y4971D02*
X9225D01*
X11911Y4871D02*
X12108D01*
X12311Y4940D02*
X12454Y5083D01*
X9225Y4971D02*
X9773Y5519D01*
X5918Y7366D02*
X8313Y4971D01*
X11891Y4933D02*
X11923Y4901D01*
X12095D01*
X12172Y4978D01*
X11946Y8385D02*
X12073D01*
X5482Y8551D02*
X5715D01*
X11946Y7750D02*
X11996D01*
X12059Y7814D01*
X12127D02*
Y7949D01*
Y7678D02*
Y7814D01*
X12059D02*
X12127D01*
X12581Y9655D02*
X12635Y9710D01*
Y9805D01*
X12588Y9852D02*
X12635Y9805D01*
X12511Y9852D02*
X12588D01*
X12454Y9909D02*
X12511Y9852D01*
X12454Y9528D02*
X12581Y9655D01*
X12454Y9401D02*
Y9528D01*
X12581Y9224D02*
Y9274D01*
X12517Y9161D02*
X12581Y9224D01*
X12454Y9401D02*
X12581Y9274D01*
X12517Y9084D02*
Y9161D01*
X12454Y9020D02*
X12517Y9084D01*
X12454Y9020D02*
X12581Y8893D01*
X12517Y8780D02*
X12581Y8843D01*
Y8893D01*
X12454Y8639D02*
X12517Y8703D01*
Y8780D01*
X12454Y8639D02*
X12581Y8512D01*
X12517Y8322D02*
Y8449D01*
X12454Y8258D02*
X12517Y8322D01*
Y8449D02*
X12581Y8512D01*
X12454Y7877D02*
X12581Y7750D01*
X12635Y7805D02*
Y8027D01*
X12586Y8076D02*
X12635Y8027D01*
X12581Y7750D02*
X12635Y7805D01*
X12586Y8076D02*
Y8126D01*
X12581Y8131D02*
X12586Y8126D01*
X12454Y8258D02*
X12581Y8131D01*
X12517Y7687D02*
X12581Y7750D01*
X12517Y7560D02*
Y7687D01*
X12454Y7496D02*
X12517Y7560D01*
X12454Y7496D02*
X12581Y7369D01*
X12454Y7115D02*
X12459Y7120D01*
Y7170D01*
X12517Y7228D01*
Y7306D01*
X12581Y7369D01*
X12454Y7115D02*
X12581Y6988D01*
X12635Y6838D02*
Y6933D01*
X12581Y6988D02*
X12635Y6933D01*
X12588Y6791D02*
X12635Y6838D01*
X12511Y6791D02*
X12588D01*
X12454Y6734D02*
X12511Y6791D01*
X12182Y6734D02*
X12454D01*
X12127Y6679D02*
X12182Y6734D01*
X12454D02*
X12581Y6607D01*
X12517Y6544D02*
X12581Y6607D01*
X12454Y6353D02*
X12517Y6417D01*
Y6544D01*
X12454Y6353D02*
X12581Y6226D01*
Y6178D02*
Y6226D01*
X12517Y6036D02*
Y6115D01*
X12581Y6178D01*
X12454Y5972D02*
X12517Y6036D01*
X12454Y5972D02*
X12581Y5845D01*
X12459Y5596D02*
Y5646D01*
X12517Y5704D01*
Y5782D01*
X12581Y5845D01*
X12454Y5591D02*
X12459Y5596D01*
X12454Y5591D02*
X12581Y5464D01*
X12459Y5265D02*
X12517Y5323D01*
Y5401D01*
X12581Y5464D01*
X12454Y5210D02*
X12459Y5215D01*
Y5265D01*
X12454Y5210D02*
X12581Y5083D01*
X12635Y5028D01*
Y4933D02*
Y5028D01*
X12603Y4901D02*
X12635Y4933D01*
X12558Y4901D02*
X12603D01*
X12508Y4951D02*
X12558Y4901D01*
X12459Y4951D02*
X12508D01*
X12454Y4956D02*
X12459Y4951D01*
X11891Y4933D02*
Y5028D01*
X11946Y5083D01*
X12172Y4978D02*
Y5442D01*
X12056Y5531D02*
X12083D01*
X12011Y5575D02*
X12056Y5531D01*
X12083D02*
X12172Y5442D01*
X12011Y5575D02*
Y5779D01*
X11946Y5845D02*
X12011Y5779D01*
X11946Y5845D02*
Y5972D01*
X12000Y6027D01*
Y6249D01*
X11951Y6298D02*
X12000Y6249D01*
X11951Y6298D02*
Y6348D01*
X11946Y6353D02*
X11951Y6348D01*
X11946Y6353D02*
Y6480D01*
X12073D01*
X12127Y6535D02*
Y6679D01*
X12073Y6734D02*
X12127Y6679D01*
X12073Y6480D02*
X12127Y6535D01*
X11946Y6861D02*
X12073Y6734D01*
X11946Y6861D02*
X12073D01*
X12078Y7187D02*
Y7237D01*
X12127Y6916D02*
Y7138D01*
X12073Y6861D02*
X12127Y6916D01*
X12073Y7242D02*
X12078Y7237D01*
Y7187D02*
X12127Y7138D01*
X11946Y7242D02*
X12073D01*
X11946D02*
Y7369D01*
X11891Y7424D02*
Y7568D01*
X11946Y7623D01*
X11891Y7424D02*
X11946Y7369D01*
Y7623D02*
X12073D01*
Y8004D02*
X12127Y7949D01*
X12073Y7623D02*
X12127Y7678D01*
X11946Y8131D02*
X12073Y8004D01*
X11946Y8131D02*
Y8258D01*
Y8385D01*
Y8512D01*
X12000Y8457D01*
X12095D01*
X12127Y8489D01*
Y8711D01*
X12073Y8766D02*
X12127Y8711D01*
Y8821D02*
Y9043D01*
X12073Y8766D02*
X12127Y8821D01*
X12078Y9092D02*
X12127Y9043D01*
X12078Y9092D02*
Y9142D01*
X12073Y9147D02*
X12078Y9142D01*
X11891Y9329D02*
X11946Y9274D01*
X11891Y9329D02*
Y9600D01*
X11946Y9655D01*
Y9147D02*
X12073D01*
X11946D02*
Y9274D01*
X12073D01*
X11946Y9655D02*
X12073D01*
Y9782D01*
X5842Y7806D02*
X5862Y7786D01*
X5707Y7806D02*
X5842D01*
X5785Y7886D02*
X6282D01*
X5862Y7786D02*
X5869D01*
X5702Y7811D02*
Y7946D01*
Y8186D01*
X5785Y7926D02*
X6285D01*
X8524Y7300D02*
X8533Y7291D01*
Y6941D02*
Y7291D01*
X8639Y7337D02*
X9981D01*
X10612Y7925D02*
X11898D01*
X8639Y7306D02*
X9993D01*
X10612Y7925D01*
X8630Y7297D02*
X8639Y7306D01*
X11898Y7925D02*
X11946Y7877D01*
X8630Y6941D02*
Y7297D01*
Y6941D02*
X8636Y6934D01*
X8630Y7346D02*
Y7703D01*
X9981Y7337D02*
X10600Y7956D01*
X11898D02*
X11946Y8004D01*
X10600Y7956D02*
X11898D01*
X8630Y7346D02*
X8639Y7337D01*
X8533Y6941D02*
X8539Y6934D01*
X8623Y7709D02*
X8630Y7703D01*
X5732Y7126D02*
X5842D01*
X5862Y7106D02*
X5869D01*
X5842Y7126D02*
X5862Y7106D01*
X5785Y7166D02*
X6075D01*
X5730Y7125D02*
X5732Y7126D01*
X5702Y7125D02*
X5730D01*
X12141Y5024D02*
Y5142D01*
X12073Y5210D02*
X12141Y5142D01*
X12073Y4956D02*
X12141Y5024D01*
X12073Y5464D02*
X12127Y5409D01*
X12073Y5210D02*
X12127Y5265D01*
X12068Y5469D02*
X12073Y5464D01*
X12127Y5265D02*
Y5409D01*
X12454Y5083D02*
X12581Y4956D01*
X11946Y5464D02*
X12073Y5337D01*
X11946Y5083D02*
X12073D01*
X11946D02*
Y5210D01*
X12073Y5337D01*
X11946Y4956D02*
X12073D01*
X5785Y7326D02*
Y7366D01*
X5918D01*
X12018Y5469D02*
X12068D01*
X11968Y5519D02*
X12018Y5469D01*
X9773Y5519D02*
X11968D01*
X8636Y5762D02*
X8645Y5753D01*
X8034Y5728D02*
X8529D01*
X10514Y6178D02*
X11898D01*
X8529Y5728D02*
X8539Y5718D01*
X8001Y5695D02*
X8034Y5728D01*
X8636Y5762D02*
Y6058D01*
X8645Y5753D02*
X10089D01*
X8001Y5791D02*
X8034Y5758D01*
X8539Y5385D02*
Y5718D01*
X10089Y5753D02*
X10514Y6178D01*
X11898D02*
X11946Y6226D01*
X8538Y6057D02*
X8539Y6058D01*
X8538Y5767D02*
Y6057D01*
X8034Y5758D02*
X8529D01*
X8538Y5767D01*
X7968Y5758D02*
X8001Y5791D01*
X7968Y5728D02*
X8001Y5695D01*
X10527Y6147D02*
X11898D01*
X10102Y5723D02*
X10527Y6147D01*
X8636Y5714D02*
X8645Y5723D01*
X8636Y5385D02*
Y5714D01*
X8645Y5723D02*
X10102D01*
X5842Y8166D02*
X5862Y8146D01*
X5869D01*
X5785Y8166D02*
X5842D01*
X5732Y8166D02*
X5732Y8166D01*
X5785D01*
X5702Y8186D02*
X5722Y8166D01*
X5732D01*
X5702Y8318D02*
Y8367D01*
Y8186D02*
Y8318D01*
X5703Y8319D02*
X5856D01*
X5702Y8318D02*
X5703Y8319D01*
X5856D02*
X5869Y8306D01*
X5702Y8367D02*
X5711Y8376D01*
X5772Y6890D02*
Y7036D01*
X5715Y6862D02*
X5744D01*
X5772Y6890D01*
Y7036D02*
X5772Y7036D01*
X5482Y6862D02*
X5715D01*
X5785Y7286D02*
X5787Y7284D01*
X5845D02*
X5862Y7266D01*
X5787Y7284D02*
X5845D01*
X5862Y7266D02*
X5869D01*
X5702Y7706D02*
Y7811D01*
X5707Y7806D01*
X5722Y7966D02*
X5785D01*
X5702Y7946D02*
X5722Y7966D01*
X5842D02*
X5862Y7986D01*
X5869D01*
X5785Y7966D02*
X5842D01*
X5842Y7646D02*
X5862Y7626D01*
X5785Y7646D02*
X5842D01*
X5862Y7626D02*
X5869D01*
X5702Y7645D02*
Y7706D01*
Y7466D02*
Y7645D01*
X5703Y7646D01*
X5785D01*
X5702Y7290D02*
Y7466D01*
Y7226D02*
Y7290D01*
X5706Y7286D02*
X5785D01*
X5702Y7290D02*
X5706Y7286D01*
X5702Y7125D02*
Y7226D01*
Y7106D02*
Y7125D01*
Y7106D02*
X5772Y7036D01*
X5702Y7226D02*
X5722Y7206D01*
X5785D02*
X5785Y7206D01*
X5722Y7206D02*
X5785D01*
X5702Y7466D02*
X5722Y7446D01*
X5785D01*
X5785Y7446D01*
X5842D02*
X5862Y7426D01*
X5869D01*
X5785Y7446D02*
X5842D01*
X11898Y6147D02*
X11946Y6099D01*
X8622Y9298D02*
X8631Y9289D01*
Y9258D02*
X9988D01*
X10559Y8687D01*
X8622Y9249D02*
X8631Y9258D01*
Y9289D02*
X10001D01*
X8622Y9298D02*
Y9600D01*
X10001Y9289D02*
X10572Y8718D01*
X8622Y8967D02*
Y9249D01*
Y8967D02*
X8623Y8966D01*
X8621Y9601D02*
X8622Y9600D01*
X11898Y8718D02*
X11946Y8766D01*
X11898Y8687D02*
X11946Y8639D01*
X10559Y8687D02*
X11898D01*
X10572Y8718D02*
X11898D01*
X7777Y5728D02*
X7968D01*
X5812Y7489D02*
X5814Y7491D01*
X6014D01*
X5787Y7489D02*
X5812D01*
X6014Y7491D02*
X7777Y5728D01*
X5785Y7486D02*
X5787Y7489D01*
X7790Y5758D02*
X7968D01*
X5787Y7524D02*
X5812D01*
X5814Y7521D01*
X5785Y7526D02*
X5787Y7524D01*
X5814Y7521D02*
X6026D01*
X7790Y5758D01*
X8034Y7330D02*
X8524D01*
X8533Y7339D02*
Y7703D01*
X8524Y7330D02*
X8533Y7339D01*
X8034Y7300D02*
X8524D01*
X8011Y9256D02*
X8517D01*
X8526Y8967D02*
Y9247D01*
X8517Y9256D02*
X8526Y9247D01*
Y9295D02*
Y9600D01*
X8517Y9286D02*
X8526Y9295D01*
X8011Y9286D02*
X8517D01*
X7968Y7300D02*
X8001Y7267D01*
X7271Y7300D02*
X7968D01*
X5812Y8049D02*
X5814Y8051D01*
X6520D01*
X5787Y8049D02*
X5812D01*
X6520Y8051D02*
X7271Y7300D01*
X5785Y8046D02*
X5787Y8049D01*
X7968Y7330D02*
X8001Y7363D01*
X7284Y7330D02*
X7968D01*
X5787Y8084D02*
X5812D01*
X5814Y8081D01*
X5785Y8086D02*
X5787Y8084D01*
X5814Y8081D02*
X6533D01*
X7284Y7330D01*
X8001Y7363D02*
X8034Y7330D01*
X8527Y7709D02*
X8533Y7703D01*
X8001Y7267D02*
X8034Y7300D01*
X7945Y9256D02*
X7978Y9223D01*
X7401Y9256D02*
X7945D01*
X6356Y8211D02*
X7401Y9256D01*
X5814Y8211D02*
X6356D01*
X5787Y8209D02*
X5812D01*
X5814Y8211D01*
X5785Y8206D02*
X5787Y8209D01*
X7945Y9286D02*
X7978Y9319D01*
X7389Y9286D02*
X7945D01*
X5787Y8244D02*
X5812D01*
X5814Y8241D01*
X5785Y8246D02*
X5787Y8244D01*
X6344Y8241D02*
X7389Y9286D01*
X5814Y8241D02*
X6344D01*
X7978Y9319D02*
X8011Y9286D01*
X8524Y9601D02*
X8526Y9600D01*
X7978Y9223D02*
X8011Y9256D01*
X8526Y8967D02*
X8527Y8966D01*
M02*
