G04*
G04 #@! TF.GenerationSoftware,Altium Limited,Altium Designer,21.4.1 (30)*
G04*
G04 Layer_Color=65535*
%FSLAX42Y42*%
%MOMM*%
G71*
G04*
G04 #@! TF.SameCoordinates,E2F270B4-6BBA-4985-9D84-7226317FA361*
G04*
G04*
G04 #@! TF.FilePolarity,Positive*
G04*
G01*
G75*
%ADD10C,0.14*%
%ADD11C,0.20*%
%ADD12C,0.13*%
%ADD13C,0.23*%
D10*
X5882Y8371D02*
G03*
X5882Y8371I-7J0D01*
G01*
D11*
X11529Y4613D02*
Y10222D01*
X12997Y4613D02*
Y10222D01*
X11529Y4613D02*
X12997D01*
X12187Y10310D02*
X12339D01*
X12187Y10222D02*
Y10310D01*
X12339Y10222D02*
Y10310D01*
X11529Y10222D02*
X12187D01*
X12339D02*
X12997D01*
D12*
X5410Y6929D02*
Y8481D01*
X5848Y6846D02*
Y7051D01*
X5815Y6846D02*
X5848D01*
X5815Y8566D02*
X5848D01*
Y8361D02*
Y8566D01*
D13*
X8511Y5150D02*
Y5239D01*
X8556D01*
X8570Y5224D01*
Y5194D01*
X8556Y5179D01*
X8511D01*
X8541D02*
X8570Y5150D01*
X8600Y5165D02*
X8615Y5150D01*
X8644D01*
X8659Y5165D01*
Y5224D01*
X8644Y5239D01*
X8615D01*
X8600Y5224D01*
Y5209D01*
X8615Y5194D01*
X8659D01*
X11544Y10427D02*
Y10579D01*
X11621D01*
X11646Y10554D01*
Y10503D01*
X11621Y10478D01*
X11544D01*
X11697Y10427D02*
X11747D01*
X11722D01*
Y10579D01*
X11697Y10554D01*
X13200Y4881D02*
X13170Y4851D01*
Y4792D01*
X13200Y4762D01*
X13318D01*
X13348Y4792D01*
Y4851D01*
X13318Y4881D01*
X13348Y4970D02*
Y5029D01*
X13318Y5059D01*
X13259D01*
X13229Y5029D01*
Y4970D01*
X13259Y4940D01*
X13318D01*
X13348Y4970D01*
Y5118D02*
X13229D01*
Y5207D01*
X13259Y5236D01*
X13348D01*
Y5296D02*
X13229D01*
Y5385D01*
X13259Y5414D01*
X13348D01*
Y5562D02*
Y5503D01*
X13318Y5473D01*
X13259D01*
X13229Y5503D01*
Y5562D01*
X13259Y5592D01*
X13288D01*
Y5473D01*
X13229Y5770D02*
Y5681D01*
X13259Y5651D01*
X13318D01*
X13348Y5681D01*
Y5770D01*
X13200Y5859D02*
X13229D01*
Y5829D01*
Y5888D01*
Y5859D01*
X13318D01*
X13348Y5888D01*
Y6007D02*
Y6066D01*
X13318Y6096D01*
X13259D01*
X13229Y6066D01*
Y6007D01*
X13259Y5977D01*
X13318D01*
X13348Y6007D01*
X13229Y6155D02*
X13348D01*
X13288D01*
X13259Y6184D01*
X13229Y6214D01*
Y6244D01*
X13259Y6510D02*
Y6629D01*
X13348Y6866D02*
X13170D01*
X13229Y6925D01*
X13170Y6984D01*
X13348D01*
Y7132D02*
Y7073D01*
X13318Y7044D01*
X13259D01*
X13229Y7073D01*
Y7132D01*
X13259Y7162D01*
X13288D01*
Y7044D01*
X13229Y7221D02*
Y7340D01*
X13348Y7221D01*
Y7340D01*
X13229Y7399D02*
Y7518D01*
X13348Y7399D01*
Y7518D01*
X13229Y7606D02*
Y7666D01*
X13259Y7695D01*
X13348D01*
Y7606D01*
X13318Y7577D01*
X13288Y7606D01*
Y7695D01*
X13348Y7754D02*
X13229D01*
Y7843D01*
X13259Y7873D01*
X13348D01*
Y7932D02*
Y7991D01*
Y7962D01*
X13229D01*
Y7932D01*
X13348Y8080D02*
X13229D01*
Y8169D01*
X13259Y8199D01*
X13348D01*
Y8347D02*
Y8288D01*
X13318Y8258D01*
X13259D01*
X13229Y8288D01*
Y8347D01*
X13259Y8377D01*
X13288D01*
Y8258D01*
X13229Y8732D02*
Y8643D01*
X13259Y8614D01*
X13318D01*
X13348Y8643D01*
Y8732D01*
X13229Y8821D02*
Y8880D01*
X13259Y8910D01*
X13348D01*
Y8821D01*
X13318Y8791D01*
X13288Y8821D01*
Y8910D01*
X13229Y8969D02*
X13348D01*
X13288D01*
X13259Y8999D01*
X13229Y9028D01*
Y9058D01*
X13170Y9265D02*
X13348D01*
Y9176D01*
X13318Y9147D01*
X13259D01*
X13229Y9176D01*
Y9265D01*
X13348Y9502D02*
Y9591D01*
X13318Y9621D01*
X13288Y9591D01*
Y9532D01*
X13259Y9502D01*
X13229Y9532D01*
Y9621D01*
X13348Y9680D02*
Y9739D01*
Y9710D01*
X13229D01*
Y9680D01*
X13170Y9947D02*
X13348D01*
Y9858D01*
X13318Y9828D01*
X13259D01*
X13229Y9858D01*
Y9947D01*
X13348Y10095D02*
Y10036D01*
X13318Y10006D01*
X13259D01*
X13229Y10036D01*
Y10095D01*
X13259Y10124D01*
X13288D01*
Y10006D01*
X12494Y10373D02*
X12582D01*
X12538D01*
Y10432D01*
X12494D01*
X12582D01*
Y10461D02*
Y10491D01*
Y10476D01*
X12494D01*
X12508Y10461D01*
X11873Y10432D02*
X11859Y10417D01*
Y10387D01*
X11873Y10373D01*
X11933D01*
X11947Y10387D01*
Y10417D01*
X11933Y10432D01*
X11947Y10461D02*
Y10491D01*
Y10476D01*
X11859D01*
X11873Y10461D01*
X12179Y4216D02*
Y4470D01*
X12010D01*
X11925D02*
Y4216D01*
X11798D01*
X11756Y4259D01*
Y4343D01*
X11798Y4386D01*
X11925D01*
X11502Y4259D02*
X11545Y4216D01*
X11629D01*
X11671Y4259D01*
Y4428D01*
X11629Y4470D01*
X11545D01*
X11502Y4428D01*
X5461Y8915D02*
X5436Y8941D01*
X5385D01*
X5359Y8915D01*
Y8814D01*
X5385Y8788D01*
X5436D01*
X5461Y8814D01*
X5512Y8788D02*
Y8941D01*
X5613Y8788D01*
Y8941D01*
X5664Y8788D02*
X5715D01*
X5690D01*
Y8941D01*
X5664Y8915D01*
X7929Y9442D02*
Y9531D01*
X7973D01*
X7988Y9517D01*
Y9487D01*
X7973Y9472D01*
X7929D01*
X7959D02*
X7988Y9442D01*
X8018D02*
X8048D01*
X8033D01*
Y9531D01*
X8018Y9517D01*
X8494Y9728D02*
Y9817D01*
X8538D01*
X8553Y9802D01*
Y9773D01*
X8538Y9758D01*
X8494D01*
X8523D02*
X8553Y9728D01*
X8642D02*
X8583D01*
X8642Y9787D01*
Y9802D01*
X8627Y9817D01*
X8597D01*
X8583Y9802D01*
X8498Y8744D02*
Y8833D01*
X8543D01*
X8558Y8818D01*
Y8788D01*
X8543Y8774D01*
X8498D01*
X8528D02*
X8558Y8744D01*
X8587Y8818D02*
X8602Y8833D01*
X8632D01*
X8647Y8818D01*
Y8803D01*
X8632Y8788D01*
X8617D01*
X8632D01*
X8647Y8774D01*
Y8759D01*
X8632Y8744D01*
X8602D01*
X8587Y8759D01*
X7940Y7499D02*
Y7588D01*
X7984D01*
X7999Y7573D01*
Y7544D01*
X7984Y7529D01*
X7940D01*
X7969D02*
X7999Y7499D01*
X8073D02*
Y7588D01*
X8029Y7544D01*
X8088D01*
X8496Y7836D02*
Y7925D01*
X8541D01*
X8556Y7910D01*
Y7880D01*
X8541Y7866D01*
X8496D01*
X8526D02*
X8556Y7836D01*
X8644Y7925D02*
X8585D01*
Y7880D01*
X8615Y7895D01*
X8630D01*
X8644Y7880D01*
Y7851D01*
X8630Y7836D01*
X8600D01*
X8585Y7851D01*
X8524Y6712D02*
Y6801D01*
X8568D01*
X8583Y6786D01*
Y6756D01*
X8568Y6742D01*
X8524D01*
X8553D02*
X8583Y6712D01*
X8672Y6801D02*
X8642Y6786D01*
X8613Y6756D01*
Y6727D01*
X8628Y6712D01*
X8657D01*
X8672Y6727D01*
Y6742D01*
X8657Y6756D01*
X8613D01*
X7952Y5912D02*
Y6001D01*
X7997D01*
X8012Y5986D01*
Y5956D01*
X7997Y5941D01*
X7952D01*
X7982D02*
X8012Y5912D01*
X8041Y6001D02*
X8100D01*
Y5986D01*
X8041Y5927D01*
Y5912D01*
X8509Y6185D02*
Y6274D01*
X8553D01*
X8568Y6259D01*
Y6229D01*
X8553Y6215D01*
X8509D01*
X8539D02*
X8568Y6185D01*
X8598Y6259D02*
X8613Y6274D01*
X8642D01*
X8657Y6259D01*
Y6244D01*
X8642Y6229D01*
X8657Y6215D01*
Y6200D01*
X8642Y6185D01*
X8613D01*
X8598Y6200D01*
Y6215D01*
X8613Y6229D01*
X8598Y6244D01*
Y6259D01*
X8613Y6229D02*
X8642D01*
X14221Y11199D02*
Y11288D01*
X14251Y11258D01*
X14281Y11288D01*
Y11199D01*
X14310Y11288D02*
Y11199D01*
Y11243D01*
X14370D01*
Y11288D01*
Y11199D01*
X14458Y11288D02*
X14429Y11273D01*
X14399Y11243D01*
Y11214D01*
X14414Y11199D01*
X14444D01*
X14458Y11214D01*
Y11228D01*
X14444Y11243D01*
X14399D01*
X14221Y3350D02*
Y3439D01*
X14251Y3410D01*
X14281Y3439D01*
Y3350D01*
X14310Y3439D02*
Y3350D01*
Y3395D01*
X14370D01*
Y3439D01*
Y3350D01*
X14458Y3439D02*
X14399D01*
Y3395D01*
X14429Y3410D01*
X14444D01*
X14458Y3395D01*
Y3365D01*
X14444Y3350D01*
X14414D01*
X14399Y3365D01*
X4290Y3338D02*
Y3426D01*
X4320Y3397D01*
X4349Y3426D01*
Y3338D01*
X4379Y3426D02*
Y3338D01*
Y3382D01*
X4438D01*
Y3426D01*
Y3338D01*
X4512D02*
Y3426D01*
X4468Y3382D01*
X4527D01*
X4303Y11186D02*
Y11275D01*
X4332Y11245D01*
X4362Y11275D01*
Y11186D01*
X4392Y11275D02*
Y11186D01*
Y11231D01*
X4451D01*
Y11275D01*
Y11186D01*
X4481Y11260D02*
X4495Y11275D01*
X4525D01*
X4540Y11260D01*
Y11245D01*
X4525Y11231D01*
X4510D01*
X4525D01*
X4540Y11216D01*
Y11201D01*
X4525Y11186D01*
X4495D01*
X4481Y11201D01*
X6288Y8750D02*
X6278Y8760D01*
X6256D01*
X6246Y8750D01*
Y8708D01*
X6256Y8697D01*
X6278D01*
X6288Y8708D01*
Y8729D01*
X6267D01*
X6309Y8697D02*
Y8760D01*
X6352Y8697D01*
Y8760D01*
X6373D02*
Y8697D01*
X6405D01*
X6415Y8708D01*
Y8750D01*
X6405Y8760D01*
X6373D01*
X5577Y3587D02*
X5458D01*
Y3498D01*
X5518D01*
X5458D01*
Y3410D01*
X5636D02*
Y3587D01*
X5725D01*
X5755Y3558D01*
Y3498D01*
X5725Y3469D01*
X5636D01*
X5932Y3558D02*
X5903Y3587D01*
X5844D01*
X5814Y3558D01*
Y3439D01*
X5844Y3410D01*
X5903D01*
X5932Y3439D01*
Y3498D01*
X5873D01*
X5992Y3410D02*
Y3528D01*
X6051Y3587D01*
X6110Y3528D01*
Y3410D01*
Y3498D01*
X5992D01*
X6169D02*
X6288D01*
X6466Y3558D02*
X6436Y3587D01*
X6377D01*
X6347Y3558D01*
Y3439D01*
X6377Y3410D01*
X6436D01*
X6466Y3439D01*
X6555Y3410D02*
X6614D01*
X6643Y3439D01*
Y3498D01*
X6614Y3528D01*
X6555D01*
X6525Y3498D01*
Y3439D01*
X6555Y3410D01*
X6703D02*
Y3528D01*
X6732D01*
X6762Y3498D01*
Y3410D01*
Y3498D01*
X6792Y3528D01*
X6821Y3498D01*
Y3410D01*
X6880Y3350D02*
Y3528D01*
X6969D01*
X6999Y3498D01*
Y3439D01*
X6969Y3410D01*
X6880D01*
X7088Y3528D02*
X7147D01*
X7177Y3498D01*
Y3410D01*
X7088D01*
X7058Y3439D01*
X7088Y3469D01*
X7177D01*
X7266Y3558D02*
Y3528D01*
X7236D01*
X7295D01*
X7266D01*
Y3439D01*
X7295Y3410D01*
X7384D02*
X7443D01*
X7414D01*
Y3528D01*
X7384D01*
X7532Y3587D02*
Y3410D01*
X7621D01*
X7651Y3439D01*
Y3469D01*
Y3498D01*
X7621Y3528D01*
X7532D01*
X7710Y3410D02*
X7769D01*
X7739D01*
Y3587D01*
X7710D01*
X7947Y3410D02*
X7888D01*
X7858Y3439D01*
Y3498D01*
X7888Y3528D01*
X7947D01*
X7976Y3498D01*
Y3469D01*
X7858D01*
X8213Y3410D02*
Y3587D01*
X8273Y3528D01*
X8332Y3587D01*
Y3410D01*
X8391Y3587D02*
X8450D01*
X8421D01*
Y3410D01*
X8391D01*
X8450D01*
X8539D02*
Y3587D01*
X8628D01*
X8658Y3558D01*
Y3498D01*
X8628Y3469D01*
X8539D01*
X8717Y3587D02*
X8776D01*
X8747D01*
Y3410D01*
X8717D01*
X8776D01*
X9161Y3558D02*
X9132Y3587D01*
X9073D01*
X9043Y3558D01*
Y3439D01*
X9073Y3410D01*
X9132D01*
X9161Y3439D01*
X9339Y3558D02*
X9310Y3587D01*
X9250D01*
X9221Y3558D01*
Y3528D01*
X9250Y3498D01*
X9310D01*
X9339Y3469D01*
Y3439D01*
X9310Y3410D01*
X9250D01*
X9221Y3439D01*
X9398Y3587D02*
X9458D01*
X9428D01*
Y3410D01*
X9398D01*
X9458D01*
X9547Y3498D02*
X9665D01*
X9843Y3410D02*
X9724D01*
X9843Y3528D01*
Y3558D01*
X9813Y3587D01*
X9754D01*
X9724Y3558D01*
X10080Y3587D02*
Y3410D01*
X10169D01*
X10198Y3439D01*
Y3558D01*
X10169Y3587D01*
X10080D01*
X10258Y3498D02*
X10376D01*
X10435Y3410D02*
Y3587D01*
X10524D01*
X10554Y3558D01*
Y3498D01*
X10524Y3469D01*
X10435D01*
X10613Y3587D02*
Y3410D01*
Y3498D01*
X10731D01*
Y3587D01*
Y3410D01*
X10791Y3587D02*
Y3558D01*
X10850Y3498D01*
X10909Y3558D01*
Y3587D01*
X10850Y3498D02*
Y3410D01*
X11146D02*
Y3528D01*
X11205Y3587D01*
X11265Y3528D01*
Y3410D01*
Y3498D01*
X11146D01*
X11442Y3587D02*
Y3410D01*
X11354D01*
X11324Y3439D01*
Y3498D01*
X11354Y3528D01*
X11442D01*
X11531D02*
X11591D01*
X11620Y3498D01*
Y3410D01*
X11531D01*
X11502Y3439D01*
X11531Y3469D01*
X11620D01*
X11679Y3350D02*
Y3528D01*
X11768D01*
X11798Y3498D01*
Y3439D01*
X11768Y3410D01*
X11679D01*
X11887Y3558D02*
Y3528D01*
X11857D01*
X11916D01*
X11887D01*
Y3439D01*
X11916Y3410D01*
X12094D02*
X12035D01*
X12005Y3439D01*
Y3498D01*
X12035Y3528D01*
X12094D01*
X12124Y3498D01*
Y3469D01*
X12005D01*
X12183Y3528D02*
Y3410D01*
Y3469D01*
X12213Y3498D01*
X12242Y3528D01*
X12272D01*
X12539Y3587D02*
Y3410D01*
X12627D01*
X12657Y3439D01*
Y3469D01*
X12627Y3498D01*
X12539D01*
X12627D01*
X12657Y3528D01*
Y3558D01*
X12627Y3587D01*
X12539D01*
X12746Y3410D02*
X12805D01*
X12835Y3439D01*
Y3498D01*
X12805Y3528D01*
X12746D01*
X12716Y3498D01*
Y3439D01*
X12746Y3410D01*
X12924Y3528D02*
X12983D01*
X13013Y3498D01*
Y3410D01*
X12924D01*
X12894Y3439D01*
X12924Y3469D01*
X13013D01*
X13072Y3528D02*
Y3410D01*
Y3469D01*
X13101Y3498D01*
X13131Y3528D01*
X13161D01*
X13368Y3587D02*
Y3410D01*
X13279D01*
X13250Y3439D01*
Y3498D01*
X13279Y3528D01*
X13368D01*
M02*
