G04*
G04 #@! TF.GenerationSoftware,Altium Limited,Altium Designer,21.4.1 (30)*
G04*
G04 Layer_Color=16711935*
%FSLAX42Y42*%
%MOMM*%
G71*
G04*
G04 #@! TF.SameCoordinates,E2F270B4-6BBA-4985-9D84-7226317FA361*
G04*
G04*
G04 #@! TF.FilePolarity,Positive*
G04*
G01*
G75*
%ADD38C,0.05*%
D38*
X8535Y5357D02*
Y5412D01*
X8640Y5357D02*
Y5412D01*
X8535Y5357D02*
X8640D01*
X8535Y5412D02*
X8640D01*
X8588Y5372D02*
Y5397D01*
X8575Y5385D02*
X8600D01*
X7951Y9218D02*
X8006D01*
X7951Y9324D02*
X8006D01*
Y9218D02*
Y9324D01*
X7951Y9218D02*
Y9324D01*
X7965Y9271D02*
X7991D01*
X7978Y9258D02*
Y9284D01*
X8520Y9574D02*
Y9629D01*
X8625Y9574D02*
Y9629D01*
X8520Y9574D02*
X8625D01*
X8520Y9629D02*
X8625D01*
X8572Y9589D02*
Y9614D01*
X8560Y9601D02*
X8585D01*
X8523Y8939D02*
Y8994D01*
X8628Y8939D02*
Y8994D01*
X8523Y8939D02*
X8628D01*
X8523Y8994D02*
X8628D01*
X8575Y8954D02*
Y8979D01*
X8562Y8966D02*
X8588D01*
X7974Y7263D02*
X8029D01*
X7974Y7368D02*
X8029D01*
Y7263D02*
Y7368D01*
X7974Y7263D02*
Y7368D01*
X7988Y7315D02*
X8014D01*
X8001Y7303D02*
Y7328D01*
X8523Y7681D02*
Y7736D01*
X8628Y7681D02*
Y7736D01*
X8523Y7681D02*
X8628D01*
X8523Y7736D02*
X8628D01*
X8575Y7696D02*
Y7722D01*
X8562Y7709D02*
X8588D01*
X8535Y6907D02*
Y6962D01*
X8640Y6907D02*
Y6962D01*
X8535Y6907D02*
X8640D01*
X8535Y6962D02*
X8640D01*
X8588Y6921D02*
Y6947D01*
X8575Y6934D02*
X8600D01*
X7974Y5690D02*
X8029D01*
X7974Y5795D02*
X8029D01*
Y5690D02*
Y5795D01*
X7974Y5690D02*
Y5795D01*
X7988Y5743D02*
X8014D01*
X8001Y5730D02*
Y5756D01*
X8535Y6030D02*
Y6085D01*
X8640Y6030D02*
Y6085D01*
X8535Y6030D02*
X8640D01*
X8535Y6085D02*
X8640D01*
X8588Y6045D02*
Y6071D01*
X8575Y6058D02*
X8600D01*
M02*
