G04*
G04 #@! TF.GenerationSoftware,Altium Limited,Altium Designer,21.4.1 (30)*
G04*
G04 Layer_Color=8421504*
%FSLAX42Y42*%
%MOMM*%
G71*
G04*
G04 #@! TF.SameCoordinates,E2F270B4-6BBA-4985-9D84-7226317FA361*
G04*
G04*
G04 #@! TF.FilePolarity,Positive*
G04*
G01*
G75*
G04:AMPARAMS|DCode=14|XSize=0.67mm|YSize=0.67mm|CornerRadius=0.02mm|HoleSize=0mm|Usage=FLASHONLY|Rotation=90.000|XOffset=0mm|YOffset=0mm|HoleType=Round|Shape=RoundedRectangle|*
%AMROUNDEDRECTD14*
21,1,0.67,0.64,0,0,90.0*
21,1,0.64,0.67,0,0,90.0*
1,1,0.03,0.32,0.32*
1,1,0.03,0.32,-0.32*
1,1,0.03,-0.32,-0.32*
1,1,0.03,-0.32,0.32*
%
%ADD14ROUNDEDRECTD14*%
%ADD15C,0.89*%
%ADD16R,0.60X0.20*%
%ADD17R,1.30X0.71*%
%ADD18R,1.85X0.71*%
%ADD19R,0.55X0.55*%
%ADD20R,0.58X0.45*%
%ADD21R,0.70X0.55*%
G04:AMPARAMS|DCode=22|XSize=0.67mm|YSize=0.67mm|CornerRadius=0.02mm|HoleSize=0mm|Usage=FLASHONLY|Rotation=180.000|XOffset=0mm|YOffset=0mm|HoleType=Round|Shape=RoundedRectangle|*
%AMROUNDEDRECTD22*
21,1,0.67,0.64,0,0,180.0*
21,1,0.64,0.67,0,0,180.0*
1,1,0.03,-0.32,0.32*
1,1,0.03,0.32,0.32*
1,1,0.03,0.32,-0.32*
1,1,0.03,-0.32,-0.32*
%
%ADD22ROUNDEDRECTD22*%
D14*
X8539Y5385D02*
D03*
X8636D02*
D03*
X8524Y9601D02*
D03*
X8621D02*
D03*
X8527Y8966D02*
D03*
X8623D02*
D03*
X8527Y7709D02*
D03*
X8623D02*
D03*
X8539Y6934D02*
D03*
X8636D02*
D03*
X8539Y6058D02*
D03*
X8636D02*
D03*
D15*
X11946Y9909D02*
D03*
Y9782D02*
D03*
Y9655D02*
D03*
Y9528D02*
D03*
Y9401D02*
D03*
Y9274D02*
D03*
Y9147D02*
D03*
Y9020D02*
D03*
Y8893D02*
D03*
Y8766D02*
D03*
Y8639D02*
D03*
Y8512D02*
D03*
Y8385D02*
D03*
Y8258D02*
D03*
Y8131D02*
D03*
Y8004D02*
D03*
Y7877D02*
D03*
Y7750D02*
D03*
Y7623D02*
D03*
Y7496D02*
D03*
Y4956D02*
D03*
Y5083D02*
D03*
Y5210D02*
D03*
Y5337D02*
D03*
Y5464D02*
D03*
Y5591D02*
D03*
Y5718D02*
D03*
Y5845D02*
D03*
Y5972D02*
D03*
Y6099D02*
D03*
Y6226D02*
D03*
Y6353D02*
D03*
Y6480D02*
D03*
Y6607D02*
D03*
Y6734D02*
D03*
Y6861D02*
D03*
Y6988D02*
D03*
Y7115D02*
D03*
Y7242D02*
D03*
Y7369D02*
D03*
X12073D02*
D03*
Y7242D02*
D03*
Y7115D02*
D03*
Y6988D02*
D03*
Y6861D02*
D03*
Y6734D02*
D03*
Y6607D02*
D03*
Y6480D02*
D03*
Y6353D02*
D03*
Y6226D02*
D03*
Y6099D02*
D03*
Y5972D02*
D03*
Y5845D02*
D03*
Y5718D02*
D03*
Y5591D02*
D03*
Y5464D02*
D03*
Y5337D02*
D03*
Y5210D02*
D03*
Y5083D02*
D03*
Y4956D02*
D03*
Y7496D02*
D03*
Y7623D02*
D03*
Y7750D02*
D03*
Y7877D02*
D03*
Y8004D02*
D03*
Y8131D02*
D03*
Y8258D02*
D03*
Y8385D02*
D03*
Y8512D02*
D03*
Y8639D02*
D03*
Y8766D02*
D03*
Y8893D02*
D03*
Y9020D02*
D03*
Y9147D02*
D03*
Y9274D02*
D03*
Y9401D02*
D03*
Y9528D02*
D03*
Y9655D02*
D03*
Y9782D02*
D03*
Y9909D02*
D03*
X12581D02*
D03*
Y9782D02*
D03*
Y9655D02*
D03*
Y9528D02*
D03*
Y9401D02*
D03*
Y9274D02*
D03*
Y9147D02*
D03*
Y9020D02*
D03*
Y8893D02*
D03*
Y8766D02*
D03*
Y8639D02*
D03*
Y8512D02*
D03*
Y8385D02*
D03*
Y8258D02*
D03*
Y8131D02*
D03*
Y8004D02*
D03*
Y7877D02*
D03*
Y7750D02*
D03*
Y7623D02*
D03*
Y7496D02*
D03*
Y4956D02*
D03*
Y5083D02*
D03*
Y5210D02*
D03*
Y5337D02*
D03*
Y5464D02*
D03*
Y5591D02*
D03*
Y5718D02*
D03*
Y5845D02*
D03*
Y5972D02*
D03*
Y6099D02*
D03*
Y6226D02*
D03*
Y6353D02*
D03*
Y6480D02*
D03*
Y6607D02*
D03*
Y6734D02*
D03*
Y6861D02*
D03*
Y6988D02*
D03*
Y7115D02*
D03*
Y7242D02*
D03*
Y7369D02*
D03*
X12454D02*
D03*
Y7242D02*
D03*
Y7115D02*
D03*
Y6988D02*
D03*
Y6861D02*
D03*
Y6734D02*
D03*
Y6607D02*
D03*
Y6480D02*
D03*
Y6353D02*
D03*
Y6226D02*
D03*
Y6099D02*
D03*
Y5972D02*
D03*
Y5845D02*
D03*
Y5718D02*
D03*
Y5591D02*
D03*
Y5464D02*
D03*
Y5337D02*
D03*
Y5210D02*
D03*
Y5083D02*
D03*
Y4956D02*
D03*
Y7496D02*
D03*
Y7623D02*
D03*
Y7750D02*
D03*
Y7877D02*
D03*
Y8004D02*
D03*
Y8131D02*
D03*
Y8258D02*
D03*
Y8385D02*
D03*
Y8512D02*
D03*
Y8639D02*
D03*
Y8766D02*
D03*
Y8893D02*
D03*
Y9020D02*
D03*
Y9147D02*
D03*
Y9274D02*
D03*
Y9401D02*
D03*
Y9528D02*
D03*
Y9655D02*
D03*
Y9782D02*
D03*
Y9909D02*
D03*
D16*
X5785Y7686D02*
D03*
Y7286D02*
D03*
Y7326D02*
D03*
Y7366D02*
D03*
Y7406D02*
D03*
Y7446D02*
D03*
Y7486D02*
D03*
Y7526D02*
D03*
Y7566D02*
D03*
Y7606D02*
D03*
Y7726D02*
D03*
Y7646D02*
D03*
Y7766D02*
D03*
Y7806D02*
D03*
Y7846D02*
D03*
Y7886D02*
D03*
Y7926D02*
D03*
Y7966D02*
D03*
Y8006D02*
D03*
Y8046D02*
D03*
Y8086D02*
D03*
Y8126D02*
D03*
Y8166D02*
D03*
Y8206D02*
D03*
Y8246D02*
D03*
Y8286D02*
D03*
Y7166D02*
D03*
Y7206D02*
D03*
Y7246D02*
D03*
Y7126D02*
D03*
D17*
X5715Y8551D02*
D03*
Y6862D02*
D03*
D18*
X5482Y8551D02*
D03*
Y6862D02*
D03*
D19*
X5702Y8186D02*
D03*
Y7946D02*
D03*
Y7706D02*
D03*
Y7466D02*
D03*
Y7226D02*
D03*
D20*
X5869Y8306D02*
D03*
Y8146D02*
D03*
Y7986D02*
D03*
Y7786D02*
D03*
Y7626D02*
D03*
Y7426D02*
D03*
Y7106D02*
D03*
Y7266D02*
D03*
D21*
X5780Y8376D02*
D03*
Y7036D02*
D03*
D22*
X7978Y9223D02*
D03*
Y9319D02*
D03*
X8001Y7267D02*
D03*
Y7363D02*
D03*
Y5695D02*
D03*
Y5791D02*
D03*
M02*
