G04*
G04 #@! TF.GenerationSoftware,Altium Limited,Altium Designer,21.4.1 (30)*
G04*
G04 Layer_Color=32768*
%FSLAX42Y42*%
%MOMM*%
G71*
G04*
G04 #@! TF.SameCoordinates,E2F270B4-6BBA-4985-9D84-7226317FA361*
G04*
G04*
G04 #@! TF.FilePolarity,Positive*
G04*
G01*
G75*
%ADD38C,0.05*%
%ADD39C,0.10*%
D38*
X8488Y5435D02*
X8488Y5435D01*
X8488Y5335D02*
Y5435D01*
X8688Y5335D02*
Y5435D01*
X8488Y5335D02*
X8688D01*
X8488Y5435D02*
X8688D01*
X7928Y9171D02*
X7928Y9171D01*
X8028D01*
X7928Y9371D02*
X8028D01*
Y9171D02*
Y9371D01*
X7928Y9171D02*
Y9371D01*
X8472Y9651D02*
X8473Y9651D01*
X8472Y9551D02*
Y9651D01*
X8672Y9551D02*
Y9651D01*
X8472Y9551D02*
X8672D01*
X8473Y9651D02*
X8672D01*
X8475Y9016D02*
X8475Y9016D01*
X8475Y8916D02*
Y9016D01*
X8675Y8916D02*
Y9016D01*
X8475Y8916D02*
X8675D01*
X8475Y9016D02*
X8675D01*
X7951Y7215D02*
X7951Y7215D01*
X8051D01*
X7951Y7415D02*
X8051D01*
Y7215D02*
Y7415D01*
X7951Y7215D02*
Y7415D01*
X8475Y7759D02*
X8475Y7759D01*
X8475Y7659D02*
Y7759D01*
X8675Y7659D02*
Y7759D01*
X8475Y7659D02*
X8675D01*
X8475Y7759D02*
X8675D01*
X8488Y6984D02*
X8488Y6984D01*
X8488Y6884D02*
Y6984D01*
X8688Y6884D02*
Y6984D01*
X8488Y6884D02*
X8688D01*
X8488Y6984D02*
X8688D01*
X7951Y5643D02*
X7951Y5643D01*
X8051D01*
X7951Y5843D02*
X8051D01*
Y5643D02*
Y5843D01*
X7951Y5643D02*
Y5843D01*
X8488Y6108D02*
X8488Y6108D01*
X8488Y6008D02*
Y6108D01*
X8688Y6008D02*
Y6108D01*
X8488Y6008D02*
X8688D01*
X8488Y6108D02*
X8688D01*
D39*
X11501Y10328D02*
X12352D01*
X11501Y4588D02*
Y10328D01*
Y4588D02*
X13025D01*
Y10277D01*
Y10328D01*
X12314D02*
X13025D01*
X12200Y7433D02*
X12327D01*
X12263Y7369D02*
Y7496D01*
M02*
